<svg width="136" height="24" viewBox="0 0 136 24" fill="none" xmlns="http://www.w3.org/2000/svg">
<path d="M17.9185 14.3201C17.6595 14.5711 17.5405 14.9341 17.5995 15.2901L18.4885 20.2101C18.5635 20.6271 18.3875 21.0491 18.0385 21.2901C17.6965 21.5401 17.2415 21.5701 16.8685 21.3701L12.4395 19.0601C12.2855 18.9781 12.1145 18.9341 11.9395 18.9291H11.6685C11.5745 18.9431 11.4825 18.9731 11.3985 19.0191L6.96851 21.3401C6.74951 21.4501 6.50151 21.4891 6.25851 21.4501C5.66651 21.3381 5.27151 20.7741 5.36851 20.1791L6.25851 15.2591C6.31751 14.9001 6.19851 14.5351 5.93951 14.2801L2.32851 10.7801C2.02651 10.4871 1.92151 10.0471 2.05951 9.65012C2.19351 9.25412 2.53551 8.96512 2.94851 8.90012L7.91851 8.17912C8.29651 8.14012 8.62851 7.91012 8.79851 7.57012L10.9885 3.08012C11.0405 2.98012 11.1075 2.88812 11.1885 2.81012L11.2785 2.74012C11.3255 2.68812 11.3795 2.64512 11.4395 2.61012L11.5485 2.57012L11.7185 2.50012H12.1395C12.5155 2.53912 12.8465 2.76412 13.0195 3.10012L15.2385 7.57012C15.3985 7.89712 15.7095 8.12412 16.0685 8.17912L21.0385 8.90012C21.4585 8.96012 21.8095 9.25012 21.9485 9.65012C22.0795 10.0511 21.9665 10.4911 21.6585 10.7801L17.9185 14.3201Z" fill="#F9D658"/>
<path d="M45.9185 14.3201C45.6595 14.5711 45.5405 14.9341 45.5995 15.2901L46.4885 20.2101C46.5635 20.6271 46.3875 21.0491 46.0385 21.2901C45.6965 21.5401 45.2415 21.5701 44.8685 21.3701L40.4395 19.0601C40.2855 18.9781 40.1145 18.9341 39.9395 18.9291H39.6685C39.5745 18.9431 39.4825 18.9731 39.3985 19.0191L34.9685 21.3401C34.7495 21.4501 34.5015 21.4891 34.2585 21.4501C33.6665 21.3381 33.2715 20.7741 33.3685 20.1791L34.2585 15.2591C34.3175 14.9001 34.1985 14.5351 33.9395 14.2801L30.3285 10.7801C30.0265 10.4871 29.9215 10.0471 30.0595 9.65012C30.1935 9.25412 30.5355 8.96512 30.9485 8.90012L35.9185 8.17912C36.2965 8.14012 36.6285 7.91012 36.7985 7.57012L38.9885 3.08012C39.0405 2.98012 39.1075 2.88812 39.1885 2.81012L39.2785 2.74012C39.3255 2.68812 39.3795 2.64512 39.4395 2.61012L39.5485 2.57012L39.7185 2.50012H40.1395C40.5155 2.53912 40.8465 2.76412 41.0195 3.10012L43.2385 7.57012C43.3985 7.89712 43.7095 8.12412 44.0685 8.17912L49.0385 8.90012C49.4585 8.96012 49.8095 9.25012 49.9485 9.65012C50.0795 10.0511 49.9665 10.4911 49.6585 10.7801L45.9185 14.3201Z" fill="#F9D658"/>
<path d="M73.9185 14.3201C73.6595 14.5711 73.5405 14.9341 73.5995 15.2901L74.4885 20.2101C74.5635 20.6271 74.3875 21.0491 74.0385 21.2901C73.6965 21.5401 73.2415 21.5701 72.8685 21.3701L68.4395 19.0601C68.2855 18.9781 68.1145 18.9341 67.9395 18.9291H67.6685C67.5745 18.9431 67.4825 18.9731 67.3985 19.0191L62.9685 21.3401C62.7495 21.4501 62.5015 21.4891 62.2585 21.4501C61.6665 21.3381 61.2715 20.7741 61.3685 20.1791L62.2585 15.2591C62.3175 14.9001 62.1985 14.5351 61.9395 14.2801L58.3285 10.7801C58.0265 10.4871 57.9215 10.0471 58.0595 9.65012C58.1935 9.25412 58.5355 8.96512 58.9485 8.90012L63.9185 8.17912C64.2965 8.14012 64.6285 7.91012 64.7985 7.57012L66.9885 3.08012C67.0405 2.98012 67.1075 2.88812 67.1885 2.81012L67.2785 2.74012C67.3255 2.68812 67.3795 2.64512 67.4395 2.61012L67.5485 2.57012L67.7185 2.50012H68.1395C68.5155 2.53912 68.8465 2.76412 69.0195 3.10012L71.2385 7.57012C71.3985 7.89712 71.7095 8.12412 72.0685 8.17912L77.0385 8.90012C77.4585 8.96012 77.8095 9.25012 77.9485 9.65012C78.0795 10.0511 77.9665 10.4911 77.6585 10.7801L73.9185 14.3201Z" fill="#F9D658"/>
<path d="M101.919 14.3201C101.66 14.5711 101.541 14.9341 101.6 15.2901L102.489 20.2101C102.564 20.6271 102.388 21.0491 102.039 21.2901C101.697 21.5401 101.242 21.5701 100.869 21.3701L96.4395 19.0601C96.2855 18.9781 96.1145 18.9341 95.9395 18.9291H95.6685C95.5745 18.9431 95.4825 18.9731 95.3985 19.0191L90.9685 21.3401C90.7495 21.4501 90.5015 21.4891 90.2585 21.4501C89.6665 21.3381 89.2715 20.7741 89.3685 20.1791L90.2585 15.2591C90.3175 14.9001 90.1985 14.5351 89.9395 14.2801L86.3285 10.7801C86.0265 10.4871 85.9215 10.0471 86.0595 9.65012C86.1935 9.25412 86.5355 8.96512 86.9485 8.90012L91.9185 8.17912C92.2965 8.14012 92.6285 7.91012 92.7985 7.57012L94.9885 3.08012C95.0405 2.98012 95.1075 2.88812 95.1885 2.81012L95.2785 2.74012C95.3255 2.68812 95.3795 2.64512 95.4395 2.61012L95.5485 2.57012L95.7185 2.50012H96.1395C96.5155 2.53912 96.8465 2.76412 97.0195 3.10012L99.2385 7.57012C99.3985 7.89712 99.7095 8.12412 100.069 8.17912L105.039 8.90012C105.459 8.96012 105.81 9.25012 105.949 9.65012C106.08 10.0511 105.967 10.4911 105.659 10.7801L101.919 14.3201Z" fill="#F9D658"/>
<path d="M129.919 14.3201C129.66 14.5711 129.541 14.9341 129.6 15.2901L130.489 20.2101C130.564 20.6271 130.388 21.0491 130.039 21.2901C129.697 21.5401 129.242 21.5701 128.869 21.3701L124.44 19.0601C124.286 18.9781 124.115 18.9341 123.94 18.9291H123.669C123.575 18.9431 123.483 18.9731 123.399 19.0191L118.969 21.3401C118.75 21.4501 118.502 21.4891 118.259 21.4501C117.667 21.3381 117.272 20.7741 117.369 20.1791L118.259 15.2591C118.318 14.9001 118.199 14.5351 117.94 14.2801L114.329 10.7801C114.027 10.4871 113.922 10.0471 114.06 9.65012C114.194 9.25412 114.536 8.96512 114.949 8.90012L119.919 8.17912C120.297 8.14012 120.629 7.91012 120.799 7.57012L122.989 3.08012C123.041 2.98012 123.108 2.88812 123.189 2.81012L123.279 2.74012C123.326 2.68812 123.38 2.64512 123.44 2.61012L123.549 2.57012L123.719 2.50012H124.14C124.516 2.53912 124.847 2.76412 125.02 3.10012L127.239 7.57012C127.399 7.89712 127.71 8.12412 128.069 8.17912L133.039 8.90012C133.459 8.96012 133.81 9.25012 133.949 9.65012C134.08 10.0511 133.967 10.4911 133.659 10.7801L129.919 14.3201Z" fill="#E5E5E5"/>
</svg>
